<svg width="30" height="30" viewBox="0 0 54 53" fill="none" xmlns="http://www.w3.org/2000/svg">
<path fill-rule="evenodd" clip-rule="evenodd" d="M15.86 0.158295C18.6733 0.0287808 19.5703 0 26.7367 0C33.9032 0 34.8002 0.0311793 37.6111 0.158295C40.4221 0.285411 42.3408 0.733913 44.0197 1.38388C45.7777 2.04824 47.3726 3.08675 48.6918 4.42986C50.0349 5.74659 51.071 7.33913 51.7329 9.09956C52.3853 10.7784 52.8314 12.6972 52.9609 15.5033C53.0904 18.3214 53.1192 19.2184 53.1192 26.3825C53.1192 33.5489 53.088 34.4459 52.9609 37.2593C52.8338 40.0654 52.3853 41.9841 51.7329 43.663C51.071 45.4237 50.0331 47.0189 48.6918 48.3375C47.3726 49.6806 45.7777 50.7167 44.0197 51.3787C42.3408 52.0311 40.4221 52.4772 37.6159 52.6067C34.8002 52.7362 33.9032 52.765 26.7367 52.765C19.5703 52.765 18.6733 52.7338 15.86 52.6067C13.0538 52.4796 11.1351 52.0311 9.45621 51.3787C7.69558 50.7166 6.1004 49.6788 4.78171 48.3375C3.43951 47.02 2.40084 45.4256 1.73813 43.6654C1.08816 41.9865 0.642057 40.0678 0.512543 37.2617C0.383029 34.4435 0.354248 33.5465 0.354248 26.3825C0.354248 19.216 0.385427 18.319 0.512543 15.5081C0.639659 12.6972 1.08816 10.7784 1.73813 9.09956C2.40182 7.33932 3.44128 5.74494 4.78411 4.42746C6.10093 3.08555 7.69451 2.04691 9.45381 1.38388C11.1327 0.733913 13.0514 0.287809 15.8576 0.158295H15.86ZM37.3977 4.90714C34.6155 4.78003 33.7809 4.75364 26.7367 4.75364C19.6926 4.75364 18.858 4.78003 16.0758 4.90714C13.5023 5.02466 12.1064 5.45398 11.1759 5.81614C9.94548 6.29582 9.06527 6.86424 8.14188 7.78763C7.26657 8.63919 6.59294 9.67585 6.17039 10.8216C5.80823 11.7522 5.37891 13.1481 5.26139 15.7216C5.13427 18.5037 5.10789 19.3384 5.10789 26.3825C5.10789 33.4266 5.13427 34.2613 5.26139 37.0434C5.37891 39.6169 5.80823 41.0128 6.17039 41.9434C6.59251 43.0874 7.26646 44.1259 8.14188 44.9773C8.99331 45.8528 10.0318 46.5267 11.1759 46.9488C12.1064 47.311 13.5023 47.7403 16.0758 47.8578C18.858 47.985 19.6902 48.0113 26.7367 48.0113C33.7833 48.0113 34.6155 47.985 37.3977 47.8578C39.9711 47.7403 41.367 47.311 42.2976 46.9488C43.528 46.4692 44.4082 45.9007 45.3316 44.9773C46.207 44.1259 46.881 43.0874 47.3031 41.9434C47.6652 41.0128 48.0946 39.6169 48.2121 37.0434C48.3392 34.2613 48.3656 33.4266 48.3656 26.3825C48.3656 19.3384 48.3392 18.5037 48.2121 15.7216C48.0946 13.1481 47.6652 11.7522 47.3031 10.8216C46.8234 9.59123 46.255 8.71102 45.3316 7.78763C44.48 6.91238 43.4433 6.23876 42.2976 5.81614C41.367 5.45398 39.9711 5.02466 37.3977 4.90714ZM23.367 34.5155C25.2489 35.2989 27.3444 35.4046 29.2957 34.8146C31.2469 34.2246 32.9328 32.9755 34.0653 31.2806C35.1979 29.5857 35.7069 27.5502 35.5054 25.5217C35.3039 23.4932 34.4045 21.5976 32.9606 20.1586C32.0402 19.2388 30.9273 18.5344 29.702 18.0963C28.4767 17.6582 27.1695 17.4973 25.8745 17.625C24.5795 17.7527 23.329 18.166 22.2129 18.835C21.0968 19.5041 20.1429 20.4122 19.4199 21.4942C18.6969 22.5761 18.2228 23.8049 18.0318 25.0921C17.8407 26.3792 17.9373 27.6927 18.3148 28.938C18.6923 30.1833 19.3412 31.3295 20.2148 32.2939C21.0884 33.2583 22.165 34.0171 23.367 34.5155ZM17.1479 16.7937C18.4071 15.5344 19.902 14.5356 21.5473 13.8541C23.1926 13.1726 24.9559 12.8218 26.7367 12.8218C28.5175 12.8218 30.2809 13.1726 31.9262 13.8541C33.5714 14.5356 35.0663 15.5344 36.3256 16.7937C37.5848 18.0529 38.5837 19.5478 39.2652 21.193C39.9466 22.8383 40.2974 24.6017 40.2974 26.3825C40.2974 28.1633 39.9466 29.9267 39.2652 31.5719C38.5837 33.2172 37.5848 34.7121 36.3256 35.9713C33.7825 38.5144 30.3332 39.9431 26.7367 39.9431C23.1402 39.9431 19.691 38.5144 17.1479 35.9713C14.6048 33.4282 13.1761 29.979 13.1761 26.3825C13.1761 22.786 14.6048 19.3368 17.1479 16.7937ZM43.3049 14.8413C43.617 14.547 43.8668 14.193 44.0396 13.8004C44.2124 13.4077 44.3046 12.9844 44.3109 12.5555C44.3171 12.1266 44.2373 11.7007 44.076 11.3032C43.9147 10.9057 43.6753 10.5446 43.372 10.2413C43.0687 9.93797 42.7076 9.69858 42.3101 9.53731C41.9126 9.37604 41.4867 9.29617 41.0578 9.30242C40.6289 9.30868 40.2056 9.40093 39.8129 9.57372C39.4203 9.7465 39.0663 9.99631 38.7719 10.3084C38.1995 10.9152 37.8861 11.7213 37.8982 12.5555C37.9104 13.3897 38.2472 14.1863 38.8371 14.7762C39.427 15.3661 40.2236 15.7029 41.0578 15.7151C41.892 15.7272 42.6981 15.4138 43.3049 14.8413Z" fill="white"/>
</svg>
