<svg width="30" height="30" viewBox="0 0 50 50" fill="none" xmlns="http://www.w3.org/2000/svg">
<path d="M0 7C0 3.13401 3.13401 0 7 0H43C46.866 0 50 3.13401 50 7V43C50 46.866 46.866 50 43 50H7C3.13401 50 0 46.866 0 43V7Z" fill="white"/>
<path d="M18 13.5C18 15.9853 15.9853 18 13.5 18C11.0147 18 9 15.9853 9 13.5C9 11.0147 11.0147 9 13.5 9C15.9853 9 18 11.0147 18 13.5Z" fill="black"/>
<path d="M10 21C10 20.4477 10.4477 20 11 20H16C16.5523 20 17 20.4477 17 21V40C17 40.5523 16.5523 41 16 41H11C10.4477 41 10 40.5523 10 40V21Z" fill="black"/>
<path d="M21 20L25.5 20C26.0523 20 26.5 20.4477 26.5 21V22C28.5 19.5 32.1667 19.3333 34 19.5C39.7154 20.0195 40.6667 25.8333 40.5 29L40.5 40C40.5 40.5523 40.0523 41 39.5 41L35 41C34.4477 41 34 40.5523 34 40V29C33.8333 27.6667 32.9 25 30.5 25C28.1 25 26.6667 28 26.5 29V40C26.5 40.5523 26.0523 41 25.5 41L21 41C20.4477 41 20 40.5523 20 40V21C20 20.4477 20.4477 20 21 20Z" fill="black"/>
</svg>
